# xmcd
#
# Track frame offsets:
#	150
#	10384
#	21351
#	38116
#	50326
#	61803
#	74134
#	90282
#	101633
#	114337
#	126183
#	137746
#	148179
#	158895
#	171079
#	182244
#	194153
#	204524
#
# Disc length: 2861 seconds
#
# Revision: 0
# Processed by: cddbd v1.5.2PL0 Copyright (c) Steve Scherf et al.
# Submitted via: EasyCDDAExtractor 2010.6.0.0
#
DISCID=0a0b2b12
DTITLE=Sweet Jeena and the Roommates
DYEAR=1900
DGENRE=
TTITLE0=To love or not to love
TTITLE1=Oh senorita
TTITLE2=Angel baby
TTITLE3=Time and time again
TTITLE4=Teardrops
TTITLE5=Poor little fool
TTITLE6=Deceve me
TTITLE7=Lonely Sixteen
TTITLE8=Oh Julie
TTITLE9=Will 
TTITLE10=Angel my angel
TTITLE11=Touch and go
TTITLE12=At the end of the rainbow
TTITLE13=Aina uudelleen (Time and time again)
TTITLE14=Kyynel (Teardrops)
TTITLE15=Kesä (Will)
TTITLE16=Kuule kulta (Touch and go)
TTITLE17=Rakkautta vai ei (To love or not to love)
EXTD=
EXTT0=
EXTT1=
EXTT2=
EXTT3=
EXTT4=
EXTT5=
EXTT6=
EXTT7=
EXTT8=
EXTT9=
EXTT10=
EXTT11=
EXTT12=
EXTT13=
EXTT14=
EXTT15=
EXTT16=
EXTT17=
PLAYORDER=
